<?xml version="1.0" encoding="utf-8"?>
<!-- Generator: Adobe Illustrator 21.1.0, SVG Export Plug-In . SVG Version: 6.00 Build 0)  -->
<!DOCTYPE svg PUBLIC "-//W3C//DTD SVG 1.1//EN" "http://www.w3.org/Graphics/SVG/1.1/DTD/svg11.dtd">
<svg version="1.1" id="Layer_1" xmlns="http://www.w3.org/2000/svg" xmlns:xlink="http://www.w3.org/1999/xlink" x="0px" y="0px"
	 viewBox="0 0 432 64.8" enable-background="new 0 0 432 64.8" xml:space="preserve">
<g>
	<g>
		<g>
			<path fill="#FFFFFF" d="M27.7,60.1c-1.2,0-2.4-0.5-3.2-1.3L1.3,35.6c-1.8-1.8-1.8-4.7,0-6.4L24.5,6c1.8-1.8,4.7-1.8,6.4,0
				l23.1,23.1c1.8,1.8,1.8,4.7,0,6.4L30.9,58.8C30.1,59.6,28.9,60.1,27.7,60.1z M27.7,8.2c-0.3,0-0.5,0.1-0.7,0.3L3.8,31.7
				c-0.4,0.4-0.4,1.1,0,1.5l23.1,23.1c0.4,0.4,1.1,0.4,1.5,0l23.1-23.1c0.4-0.4,0.4-1.1,0-1.5L28.4,8.5C28.2,8.3,28,8.2,27.7,8.2z"
				/>
		</g>
		<g>
			<path fill="#FFFFFF" d="M37.3,26.8l-7.6,7.6l-4.1-4.1l7.6-7.6c0.3-0.3,0.3-0.9,0-1.2l-5-5c-0.3-0.3-0.9-0.3-1.2,0L11.9,31.8
				c-0.3,0.3-0.3,0.9,0,1.2l15.2,15.2c0.3,0.3,0.9,0.3,1.2,0L43.5,33c0.3-0.3,0.3-0.9,0-1.2l-5-5C38.2,26.5,37.6,26.5,37.3,26.8z"/>
		</g>
	</g>
	<g>
		<g>
			<path fill="#FFFFFF" d="M80.5,17.5c1.5,0,2.8,0.1,3.9,0.4c1.1,0.2,2.1,0.6,2.9,0.9c0.8,0.4,1.5,0.9,2.1,1.6
				c0.6,0.7,1,1.4,1.4,2.1c0.3,0.7,0.6,1.7,0.8,2.7c0.2,1.1,0.3,2.1,0.4,3.2c0.1,1,0.1,2.3,0.1,3.7c0,2-0.1,3.7-0.2,5.1
				c-0.1,1.3-0.4,2.7-0.9,4c-0.5,1.3-1.1,2.3-1.9,3.1c-0.8,0.7-2,1.3-3.4,1.8c-1.4,0.5-3.2,0.7-5.2,0.7H68.9v-2.7h2.4V20.3h-2.4
				v-2.7H80.5z M75.4,20.8v22.8h4.7c1.4,0,2.5-0.2,3.5-0.5c1-0.4,1.7-0.8,2.3-1.4c0.6-0.6,1-1.4,1.3-2.4c0.3-1,0.5-2.1,0.6-3.1
				c0.1-1,0.1-2.3,0.1-3.9c0-1.6,0-2.9-0.1-3.9c-0.1-1-0.3-2.1-0.6-3.1c-0.3-1-0.7-1.8-1.3-2.4c-0.6-0.6-1.3-1.1-2.3-1.4
				c-1-0.4-2.1-0.5-3.5-0.5H75.4z"/>
			<path fill="#FFFFFF" d="M109.1,44.5c-2.4,1.9-5,2.8-7.7,2.8c-2.4,0-4.1-0.5-5.2-1.6c-1-1.1-1.6-2.7-1.6-4.8c0-2.3,0.5-4,1.5-5.1
				c1-1.1,2.9-1.7,5.7-1.9l6.5-0.4V30c0-1.2-0.4-2.1-1.2-2.6c-0.8-0.5-1.8-0.8-3.1-0.8c-1.9,0-3.2,0.3-3.9,1
				c-0.7,0.7-1.1,1.8-1.2,3.3l-3.4-0.2c0.2-2.5,0.9-4.3,2.1-5.5s3.4-1.8,6.4-1.8c5.5,0,8.3,2.1,8.3,6.4v14.4h2.4v2.7h-5.1
				L109.1,44.5z M108.4,41.9v-5.5l-5.8,0.4c-1.6,0.1-2.6,0.4-3.2,1c-0.5,0.6-0.8,1.6-0.8,3.1c0,1.2,0.3,2.1,0.9,2.6
				c0.6,0.6,1.6,0.8,3,0.8C104.7,44.3,106.7,43.5,108.4,41.9z"/>
			<path fill="#FFFFFF" d="M123.9,27.8c1.9-2.8,4.6-4.3,8.1-4.5v3.6c-3.5,0.1-6.1,1.5-7.8,4.1v13.1h3.2v2.7h-9.7v-2.7h2.4V26.6h-2.4
				v-2.7h2.4h2.2L123.9,27.8z"/>
			<path fill="#FFFFFF" d="M132.9,17h6.5V33h3l4.5-6.4h-1.9v-2.7h8.6v2.7h-2.2l-5.8,8.1l6.5,9.3h2.2v2.7h-8.6v-2.7h2l-5.7-8.2h-2.5
				v8.2h2.1v2.7h-8.6v-2.7h2.4V19.8h-2.4V17z"/>
			<path fill="#FFFFFF" d="M163.3,46.8v-9.1h3c0.1,2.1,0.7,3.6,1.8,4.8c1.2,1.1,2.9,1.7,5.2,1.7c2.1,0,3.7-0.4,4.7-1.1
				c1-0.7,1.4-2,1.4-3.6c0-1.6-0.3-2.7-1-3.4s-2-1.2-3.8-1.6l-3.4-0.6c-2.8-0.6-4.8-1.4-5.9-2.6c-1.1-1.2-1.7-3.1-1.7-5.7
				c0-2.8,0.7-4.9,2-6.3c1.3-1.4,3.6-2.2,6.8-2.2c3.4,0,5.9,1,7.3,3.1v-2.6h3v7.9h-3c-0.3-3.4-2.5-5.2-6.5-5.2
				c-2.1,0-3.6,0.4-4.4,1.2c-0.8,0.8-1.2,2.1-1.2,3.8c0,1.5,0.3,2.5,0.9,3.1c0.6,0.6,1.9,1.1,3.8,1.5l3.2,0.6c2.9,0.6,4.9,1.5,6,2.6
				s1.7,3,1.7,5.6c0,2.8-0.7,4.9-2.2,6.3c-1.5,1.4-3.8,2.1-7.2,2.1c-3.6,0-6.3-1.1-7.9-3.4v2.9H163.3z"/>
			<path fill="#FFFFFF" d="M207.2,55.1h-9.7v-2.7h3.2V46c-2.1,0.9-4.1,1.3-5.9,1.3c-1.6,0-2.9-0.2-4-0.7c-1.1-0.5-2-1-2.6-1.7
				c-0.6-0.7-1.1-1.6-1.5-2.7c-0.4-1.1-0.6-2.2-0.7-3.2c-0.1-1-0.2-2.3-0.2-3.7c0-1.4,0.1-2.6,0.2-3.7c0.1-1,0.3-2.1,0.7-3.2
				c0.4-1.1,0.9-2,1.5-2.7c0.6-0.7,1.5-1.3,2.6-1.7c1.1-0.5,2.5-0.7,4-0.7c2.6,0,4.9,0.7,6.9,2.2l0.9-1.6h2.2h2.4v2.7h-2.4v25.8h2.4
				V55.1z M200.8,43V28c-1.4-1-3.1-1.4-5-1.4c-1,0-1.8,0.1-2.6,0.4s-1.3,0.7-1.7,1.2c-0.4,0.5-0.7,1.1-1,1.9s-0.4,1.6-0.5,2.4
				c-0.1,0.8-0.1,1.8-0.1,2.9c0,1.1,0,2.1,0.1,2.9c0.1,0.8,0.2,1.6,0.5,2.4s0.6,1.4,1,1.9c0.4,0.5,1,0.9,1.7,1.2s1.6,0.4,2.6,0.4
				C197.5,44.2,199.2,43.8,200.8,43z"/>
			<path fill="#FFFFFF" d="M216.2,23.9v15.9c0,1.6,0.3,2.7,0.9,3.4c0.6,0.7,1.7,1,3.2,1c2.4,0,4.6-0.9,6.7-2.6v-15h-2.4v-2.7h6.5
				v20.2h2.4v2.7h-5.1l-0.9-2.3c-2.7,1.9-5.5,2.9-8.4,2.9c-2.5,0-4.3-0.6-5.4-1.8s-1.6-3-1.6-5.4V26.6h-2.4v-2.7h2.4H216.2z"/>
			<path fill="#FFFFFF" d="M250.6,44.5c-2.4,1.9-5,2.8-7.7,2.8c-2.4,0-4.1-0.5-5.2-1.6c-1-1.1-1.6-2.7-1.6-4.8c0-2.3,0.5-4,1.5-5.1
				c1-1.1,2.9-1.7,5.7-1.9l6.5-0.4V30c0-1.2-0.4-2.1-1.2-2.6c-0.8-0.5-1.8-0.8-3.1-0.8c-1.9,0-3.2,0.3-3.9,1
				c-0.7,0.7-1.1,1.8-1.2,3.3l-3.4-0.2c0.2-2.5,0.9-4.3,2.1-5.5s3.4-1.8,6.4-1.8c5.5,0,8.3,2.1,8.3,6.4v14.4h2.4v2.7h-5.1
				L250.6,44.5z M249.8,41.9v-5.5l-5.8,0.4c-1.6,0.1-2.6,0.4-3.2,1c-0.5,0.6-0.8,1.6-0.8,3.1c0,1.2,0.3,2.1,0.9,2.6
				c0.6,0.6,1.6,0.8,3,0.8C246.2,44.3,248.1,43.5,249.8,41.9z"/>
			<path fill="#FFFFFF" d="M265.4,27.8c1.9-2.8,4.6-4.3,8.1-4.5v3.6c-3.5,0.1-6.1,1.5-7.8,4.1v13.1h3.2v2.7h-9.7v-2.7h2.4V26.6h-2.4
				v-2.7h2.4h2.2L265.4,27.8z"/>
			<path fill="#FFFFFF" d="M279.5,46.6c-1.3-0.5-2.3-1.3-3-2.4c-0.7-1.1-1.2-2.3-1.5-3.7c-0.3-1.4-0.4-3.1-0.4-5.2
				c0-1.4,0.1-2.6,0.2-3.7c0.1-1,0.4-2.1,0.8-3.2c0.4-1.1,0.9-2,1.6-2.7c0.7-0.7,1.6-1.3,2.8-1.7c1.2-0.5,2.7-0.7,4.4-0.7
				c1.7,0,3.1,0.2,4.3,0.7c1.2,0.5,2.1,1,2.8,1.7c0.7,0.7,1.2,1.6,1.6,2.7c0.4,1.1,0.6,2.2,0.7,3.2c0.1,1,0.2,2.3,0.2,3.7v1h-15.3
				c0.1,2.9,0.5,4.9,1.3,6c0.8,1.2,2.4,1.7,4.7,1.7c2.1,0,3.5-0.4,4.3-1.2c0.8-0.8,1.2-1.9,1.3-3.4l3.3,0.2
				c-0.1,1.1-0.3,2.1-0.6,2.9c-0.3,0.8-0.7,1.6-1.3,2.4s-1.5,1.3-2.7,1.7c-1.2,0.4-2.7,0.6-4.5,0.6
				C282.5,47.4,280.9,47.1,279.5,46.6z M280,28.2c-0.8,1.1-1.2,2.9-1.3,5.2h11.3c-0.1-2.3-0.5-4.1-1.2-5.2c-0.7-1.1-2.2-1.7-4.4-1.7
				C282.2,26.5,280.8,27.1,280,28.2z"/>
			<path fill="#FFFFFF" d="M304.9,46.8v-2.7h2.4V20.3h-2.4v-2.7h10.8c1.9,0,3.5,0.2,4.8,0.6c1.3,0.4,2.2,1,2.8,1.7
				c0.6,0.8,1,1.6,1.2,2.3c0.2,0.8,0.3,1.7,0.3,2.8c0,1.6-0.3,3-0.8,4.1c-0.5,1.1-1.5,1.9-3,2.5c1.1,0.2,2,0.6,2.7,1.1
				c0.7,0.5,1.3,1.1,1.6,1.7c0.4,0.7,0.6,1.4,0.7,2.1c0.1,0.7,0.2,1.5,0.2,2.4c0,1.2-0.1,2.2-0.3,3c-0.2,0.8-0.6,1.6-1.2,2.4
				c-0.6,0.8-1.5,1.4-2.8,1.8c-1.3,0.4-2.8,0.6-4.8,0.6H304.9z M315.6,30.2c2,0,3.3-0.4,4-1.2c0.7-0.8,1-1.9,1-3.5
				c0-1.6-0.3-2.8-1-3.6c-0.7-0.8-2-1.2-4-1.2h-4.2v9.4H315.6z M317,43.5c1.9,0,3.3-0.4,4-1.2c0.7-0.8,1.1-2.1,1.1-3.7
				c0-1.7-0.3-3-1-3.8c-0.7-0.8-2-1.3-4-1.3h-5.6v10.1H317z"/>
			<path fill="#FFFFFF" d="M329,23.9h6.5v20.2h2.4v2.7H329v-2.7h2.4V26.6H329V23.9z M331.8,20.2c-0.4-0.3-0.6-0.6-0.7-1
				c-0.1-0.3-0.1-0.8-0.1-1.3c0-0.6,0-1,0.1-1.4c0.1-0.3,0.3-0.7,0.7-1c0.4-0.3,0.9-0.5,1.6-0.5c0.6,0,1,0.1,1.4,0.2
				c0.3,0.1,0.6,0.4,0.7,0.7c0.1,0.3,0.2,0.6,0.3,0.9c0,0.3,0.1,0.6,0.1,1c0,0.4,0,0.7-0.1,1c0,0.3-0.1,0.5-0.3,0.9
				c-0.1,0.3-0.4,0.6-0.7,0.7c-0.3,0.1-0.8,0.2-1.4,0.2C332.8,20.7,332.2,20.5,331.8,20.2z"/>
			<path fill="#FFFFFF" d="M357.9,23.9v8.3h-2.6c-0.1-2.3-0.6-3.8-1.5-4.5c-0.9-0.7-2.4-1.1-4.6-1.1c-1.4,0-2.5,0.3-3.2,0.9
				c-0.7,0.6-1,1.4-1,2.4c0,0.9,0.3,1.6,0.8,2.1c0.5,0.5,1.4,0.9,2.7,1.2l3.9,1c2.2,0.6,3.7,1.3,4.7,2.3c1,1,1.5,2.4,1.5,4.3
				c0,4.5-2.7,6.7-8.1,6.7c-3.1,0-5.4-1-6.9-2.9l0.1,2.4H341v-8.3h2.6c0.4,3.7,2.5,5.6,6.3,5.6c3.2,0,4.8-1.1,4.8-3.3
				c0-0.8-0.3-1.5-0.8-1.9c-0.5-0.5-1.4-0.9-2.6-1.3l-3.9-1c-2.2-0.6-3.8-1.4-4.8-2.3c-1-0.9-1.5-2.4-1.5-4.5c0-1.9,0.7-3.5,2-4.7
				c1.3-1.2,3.3-1.8,5.9-1.8c2.8,0,4.9,0.8,6.3,2.4l0-1.8H357.9z"/>
			<path fill="#FFFFFF" d="M361.8,17h6.5v8.7c2.5-1.6,5-2.4,7.6-2.4c4.6,0,6.9,2.4,6.9,7.3v13.5h2.4v2.7h-8.7v-2.7h2.2V30.8
				c0-1.6-0.3-2.7-0.9-3.3c-0.6-0.7-1.5-1-2.9-1c-2.3,0-4.5,0.8-6.7,2.5v15.1h2.2v2.7h-8.7v-2.7h2.4V19.8h-2.4V17z"/>
			<path fill="#FFFFFF" d="M393.3,46.7c-1.3-0.5-2.3-1-2.9-1.7c-0.7-0.7-1.2-1.6-1.7-2.7c-0.4-1.1-0.7-2.2-0.8-3.2
				c-0.1-1-0.2-2.3-0.2-3.7c0-1.4,0.1-2.6,0.2-3.7c0.1-1,0.4-2.1,0.8-3.2c0.4-1.1,1-2,1.7-2.7c0.7-0.7,1.7-1.3,2.9-1.7
				s2.8-0.7,4.6-0.7c1.8,0,3.3,0.2,4.6,0.7c1.3,0.5,2.3,1,2.9,1.7c0.7,0.7,1.2,1.6,1.7,2.7c0.4,1.1,0.7,2.2,0.8,3.2
				c0.1,1,0.2,2.3,0.2,3.7c0,1.4-0.1,2.6-0.2,3.7c-0.1,1-0.4,2.1-0.8,3.2c-0.4,1.1-1,2-1.7,2.7c-0.7,0.7-1.7,1.3-2.9,1.7
				c-1.3,0.5-2.8,0.7-4.6,0.7C396.1,47.4,394.6,47.1,393.3,46.7z M400.3,43.8c0.7-0.2,1.3-0.5,1.7-1c0.4-0.4,0.8-0.9,1-1.4
				c0.3-0.5,0.5-1.1,0.6-1.8c0.1-0.7,0.2-1.4,0.2-2c0-0.6,0.1-1.4,0.1-2.3c0-0.9,0-1.7-0.1-2.3c0-0.6-0.1-1.3-0.2-2
				c-0.1-0.7-0.3-1.4-0.6-1.8c-0.3-0.5-0.6-0.9-1-1.4c-0.4-0.4-1-0.8-1.7-1c-0.7-0.2-1.5-0.3-2.4-0.3s-1.8,0.1-2.4,0.3
				c-0.7,0.2-1.3,0.5-1.7,1c-0.4,0.4-0.8,0.9-1,1.4c-0.3,0.5-0.5,1.1-0.6,1.8c-0.1,0.7-0.2,1.4-0.2,2c0,0.6-0.1,1.4-0.1,2.3
				c0,0.9,0,1.7,0.1,2.3c0,0.6,0.1,1.3,0.2,2c0.1,0.7,0.3,1.4,0.6,1.8c0.3,0.5,0.6,0.9,1,1.4c0.4,0.4,1,0.8,1.7,1
				c0.7,0.2,1.5,0.3,2.4,0.3S399.6,44.1,400.3,43.8z"/>
			<path fill="#FFFFFF" d="M416.1,25.8c2.2-1.7,4.5-2.5,7-2.5c1.5,0,2.8,0.2,3.9,0.7c1.1,0.5,1.9,1,2.5,1.7c0.6,0.7,1.1,1.6,1.4,2.7
				c0.3,1.1,0.6,2.2,0.7,3.2c0.1,1,0.2,2.3,0.2,3.7c0,1.4-0.1,2.6-0.2,3.7c-0.1,1-0.3,2.1-0.7,3.2c-0.4,1.1-0.9,2-1.5,2.7
				c-0.6,0.7-1.5,1.3-2.6,1.7c-1.1,0.5-2.5,0.7-4,0.7c-2,0-3.9-0.4-5.9-1.1v6.1h3.2v2.7h-9.7v-2.7h2.4V26.6h-2.4v-2.7h2.4h2.2
				L416.1,25.8z M417,28.3v15c1.6,0.6,3.2,0.9,5,0.9c1,0,1.9-0.1,2.6-0.4c0.7-0.3,1.3-0.7,1.7-1.2c0.4-0.5,0.7-1.1,1-1.9
				c0.2-0.8,0.4-1.6,0.4-2.4s0.1-1.8,0.1-2.9c0-1,0-1.9-0.1-2.7c-0.1-0.7-0.2-1.5-0.4-2.4c-0.2-0.8-0.5-1.5-0.9-2
				c-0.4-0.5-0.9-0.9-1.6-1.3c-0.7-0.3-1.5-0.5-2.5-0.5C420.4,26.5,418.7,27.1,417,28.3z"/>
		</g>
	</g>
</g>
</svg>
