<?xml version="1.0" encoding="utf-8"?>
<!-- Generator: Adobe Illustrator 21.1.0, SVG Export Plug-In . SVG Version: 6.00 Build 0)  -->
<!DOCTYPE svg PUBLIC "-//W3C//DTD SVG 1.1//EN" "http://www.w3.org/Graphics/SVG/1.1/DTD/svg11.dtd">
<svg version="1.1" id="Layer_1" xmlns="http://www.w3.org/2000/svg" xmlns:xlink="http://www.w3.org/1999/xlink" x="0px" y="0px"
	 viewBox="0 0 300 300" style="enable-background:new 0 0 300 300;" xml:space="preserve">
<style type="text/css">
	.st0{fill:#FFFFFF;}
</style>
<path class="st0" d="M297.5,59.6c-10.8,4.7-22.2,8-34.4,9.4c12.3-7.4,21.8-19.2,26.3-33.1c-11.6,6.8-24.3,11.9-37.9,14.5
	c-10.9-11.7-26.5-18.9-43.7-18.9c-33,0-59.8,26.8-59.8,59.8c0,4.6,0.5,9.3,1.6,13.6c-49.7-2.5-93.7-26.3-123.3-62.4
	c-5.1,8.8-8.1,19.1-8.1,30c0,20.7,10.6,39,26.6,49.8c-9.8-0.3-19.1-3-27.1-7.5c0,0.3,0,0.5,0,0.8c0,28.9,20.6,53.1,47.9,58.6
	c-5,1.4-10.3,2.1-15.7,2.1c-3.9,0-7.6-0.4-11.3-1.1c7.6,23.7,29.7,41,55.8,41.5c-20.4,16-46.2,25.6-74.3,25.6
	c-4.8,0-9.6-0.3-14.2-0.8c26.5,17,57.9,26.9,91.7,26.9c109.9,0,170.1-91.1,170.1-170.1c0-2.6-0.1-5.1-0.2-7.7
	C279.3,82.1,289.5,71.6,297.5,59.6z"/>
</svg>
