<?xml version="1.0" encoding="utf-8"?>
<!-- Generator: Adobe Illustrator 18.1.1, SVG Export Plug-In . SVG Version: 6.00 Build 0)  -->
<!DOCTYPE svg PUBLIC "-//W3C//DTD SVG 1.1//EN" "http://www.w3.org/Graphics/SVG/1.1/DTD/svg11.dtd">
<svg version="1.1" id="Layer_1" xmlns="http://www.w3.org/2000/svg" xmlns:xlink="http://www.w3.org/1999/xlink" x="0px" y="0px"
	 viewBox="0 0 300 300" enable-background="new 0 0 300 300" xml:space="preserve">
<g>
	<path fill="#FFFFFF" d="M180.7,153.2c0-16.1-13.1-29.2-29.2-29.2s-29.2,13.1-29.2,29.2s13.1,29.2,29.2,29.2
		S180.7,169.3,180.7,153.2z"/>
	<g>
		<path fill="#FFFFFF" d="M151.5,82.9c15.2,0,29.2,4.8,40.7,13h55.2h50.7V75.3c0-40.8-33.2-74-74-74H75.9c-40.8,0-74,33.2-74,74
			v20.6h109C122.3,87.7,136.4,82.9,151.5,82.9z M212.2,46.3c0-4.5,3.7-8.2,8.2-8.2h25.4c4.5,0,8.2,3.7,8.2,8.2v25.4
			c0,4.5-3.7,8.2-8.2,8.2h-25.4c-4.5,0-8.2-3.7-8.2-8.2V46.3z"/>
		<path fill="#FFFFFF" d="M221.8,153.2c0,38.8-31.6,70.3-70.3,70.3S81.2,192,81.2,153.2c0-10.7,2.4-20.8,6.7-29.9h-86v101.3
			c0,40.8,33.2,74,74,74h148.2c40.8,0,74-33.2,74-74V123.4h-83C219.4,132.4,221.8,142.6,221.8,153.2z"/>
	</g>
</g>
</svg>
