<?xml version="1.0" encoding="utf-8"?>
<!-- Generator: Adobe Illustrator 21.1.0, SVG Export Plug-In . SVG Version: 6.00 Build 0)  -->
<!DOCTYPE svg PUBLIC "-//W3C//DTD SVG 1.1//EN" "http://www.w3.org/Graphics/SVG/1.1/DTD/svg11.dtd">
<svg version="1.1" id="Capa_1" xmlns="http://www.w3.org/2000/svg" xmlns:xlink="http://www.w3.org/1999/xlink" x="0px" y="0px"
	 viewBox="0 0 300 300" style="enable-background:new 0 0 300 300;" xml:space="preserve">
<style type="text/css">
	.st0{fill:#FFFFFF;}
</style>
<g>
	<path id="Behance" class="st0" d="M267.6,83.7h-73.1V65.6h73.1V83.7L267.6,83.7z M145.8,158.2c4.7,7.3,7.1,16.2,7.1,26.6
		c0,10.8-2.7,20.4-8.1,29c-3.4,5.6-7.7,10.4-12.8,14.3c-5.8,4.4-12.6,7.5-20.5,9.1s-16.4,2.5-25.6,2.5H4.2V58h87.7
		c22.1,0.4,37.8,6.8,47,19.3c5.6,7.7,8.3,17,8.3,27.7c0,11.1-2.8,20-8.4,26.7c-3.1,3.8-7.7,7.2-13.8,10.3
		C134.1,145.5,141.1,150.9,145.8,158.2z M46,129.6h38.4c7.9,0,14.3-1.5,19.2-4.5c4.9-3,7.4-8.3,7.4-16c0-8.4-3.2-14-9.7-16.7
		c-5.6-1.9-12.7-2.8-21.4-2.8H46V129.6z M114.7,182.2c0-9.4-3.9-15.9-11.5-19.4c-4.3-2-10.4-3-18.2-3.1H46v48.4h38.4
		c7.9,0,14-1,18.4-3.2C110.7,200.9,114.7,193.4,114.7,182.2z M294.7,152.6c0.9,5.9,1.3,14.6,1.1,25.8h-94.7
		c0.5,13.1,5,22.2,13.6,27.4c5.2,3.3,11.4,4.9,18.7,4.9c7.7,0,14-2,18.9-6c2.6-2.1,5-5.1,7-8.9H294c-0.9,7.7-5.1,15.5-12.6,23.5
		c-11.6,12.6-27.9,19-48.9,19c-17.3,0-32.6-5.3-45.8-16c-13.2-10.7-19.8-28-19.8-52.1c0-22.6,5.9-39.8,17.9-51.8s27.4-18,46.5-18
		c11.3,0,21.5,2,30.6,6.1s16.5,10.5,22.4,19.3C289.7,133.5,293.1,142.5,294.7,152.6z M260.5,156c-0.6-9-3.7-15.9-9.1-20.5
		c-5.4-4.7-12.1-7-20.1-7c-8.7,0-15.5,2.5-20.3,7.5c-4.8,4.9-7.8,11.6-9.1,20.1L260.5,156L260.5,156z"/>
</g>
</svg>
