<?xml version="1.0" encoding="UTF-8" standalone="no"?>
<svg width="50px" height="50px" viewBox="0 0 50 50" version="1.1" xmlns="http://www.w3.org/2000/svg" xmlns:xlink="http://www.w3.org/1999/xlink">
    <!-- Generator: Sketch 47.1 (45422) - http://www.bohemiancoding.com/sketch -->
    <title>logo/dsb-symbol</title>
    <desc>Created with Sketch.</desc>
    <defs></defs>
    <g id="Symbols" stroke="none" stroke-width="1" fill="none" fill-rule="evenodd">
        <g id="logo/dsb-symbol" fill="#FFFFFF">
            <g id="Page-1" transform="translate(1.000000, 0.000000)">
                <g id="Group-3" transform="translate(0.000000, 0.508500)">
                    <path d="M23.7533,3.4902 C23.5213,3.4902 23.2883,3.5782 23.1103,3.7562 L3.2643,23.6022 C2.9103,23.9572 2.9103,24.5322 3.2643,24.8862 L23.1113,44.7342 C23.4653,45.0882 24.0413,45.0882 24.3953,44.7342 L44.2423,24.8862 C44.5963,24.5322 44.5963,23.9572 44.2423,23.6022 L24.3953,3.7552 C24.2183,3.5782 23.9863,3.4902 23.7533,3.4902 M23.7533,48.0002 C22.7093,48.0002 21.7283,47.5942 20.9903,46.8552 L1.1433,27.0082 C-0.3807,25.4842 -0.3807,23.0052 1.1433,21.4812 L20.9903,1.6342 C22.5143,0.1092 24.9933,0.1122 26.5163,1.6332 L46.3633,21.4812 C47.8873,23.0052 47.8873,25.4842 46.3633,27.0082 L26.5163,46.8552 C25.7783,47.5942 24.7973,48.0002 23.7533,48.0002" id="Fill-1"></path>
                </g>
                <path d="M31.9979,19.9841 L25.4909,26.4911 L22.0159,23.0151 L28.5229,16.5081 C28.8019,16.2291 28.8019,15.7771 28.5229,15.4981 L24.2589,11.2341 C23.9799,10.9551 23.5269,10.9551 23.2479,11.2341 L10.2339,24.2481 C9.9549,24.5271 9.9549,24.9791 10.2339,25.2581 L23.2479,38.2731 C23.5269,38.5511 23.9799,38.5511 24.2589,38.2731 L37.2729,25.2581 C37.5519,24.9791 37.5519,24.5271 37.2729,24.2481 L33.0089,19.9841 C32.7289,19.7051 32.2769,19.7051 31.9979,19.9841" id="Fill-4"></path>
            </g>
        </g>
    </g>
</svg>