<?xml version="1.0" encoding="utf-8"?>
<!-- Generator: Adobe Illustrator 21.1.0, SVG Export Plug-In . SVG Version: 6.00 Build 0)  -->
<!DOCTYPE svg PUBLIC "-//W3C//DTD SVG 1.1//EN" "http://www.w3.org/Graphics/SVG/1.1/DTD/svg11.dtd">
<svg version="1.1" id="Capa_1" xmlns="http://www.w3.org/2000/svg" xmlns:xlink="http://www.w3.org/1999/xlink" x="0px" y="0px"
	 viewBox="0 0 4000 4000" style="enable-background:new 0 0 4000 4000;" xml:space="preserve">
<style type="text/css">
	.st0{fill:#FFFFFF;}
</style>
<path class="st0" d="M3433.1,1650.1c-136.6-34.6-274.2-22.8-411.1,0.7c-153.9,26.3-287.6,101.1-434.5,192
	C2763,1221.9,3238.5,891.4,3707,832.4c106.9-13.5,83-74.9,81-138.4c-2.8-83.1-63-54.6-102.7-48.9c-302.9,44-597.3,120.6-866.3,269.6
	c-404.5,223.9-711.1,512.7-880.6,890.2c0.5-89.6-46.3-181.7-133.1-242c-49.6-34.5-104-59.2-162.2-72.9
	c-277.1-64.8-553.4-64.7-827.7,16.2c-128.5,38-243.8,99.3-337.4,197.4c-202.1,211.6-184.1,530.3,40.3,717.1
	c88.1,73.4,189.2,122,296.1,160.8c97.1,35.3,197.5,63.3,287.1,116.5c120.2,71.2,156.3,172.3,113.5,305.8
	c-42.8,133.2-146.5,188.7-273,215.9c-82.3,17.7-140,10.4-162.6-93.1c-29-132.9-87.8-255.9-197.2-345.5
	c-129.7-106.2-332-86-431.3,40.7c-97.9,125-61.7,294.9,85.1,400c64.7,46.3,137.3,76.6,213.7,95.5c269.8,66.6,542.6,70,811.9,8.7
	c287.5-65.4,503.5-217.5,557.3-558.1c11.1,43.6,25.3,85.3,42.5,125c31.2,76,71.1,142,120.6,198.8c0-1.7,0-3.4,0-5.2
	c86.1,100.1,199.1,177.1,335.3,224.9c187.6,65.9,380.6,67.9,576.4,44.9c499-58.4,929.1-455,1005.3-931.3
	C3958.6,2053.3,3767.9,1734.9,3433.1,1650.1z M1341.8,2206.8c-93.8-35.3-190.1-65.9-279.4-110.4c-152.8-76.2-185.1-257.1-75.6-388.7
	c45.2-54.4,104.3-89.3,169.8-114.6c70.1-27.1,112.4-19.7,133.1,67.9c30.5,129.2,84.1,250.7,194.7,335.5
	c118.3,90.9,297.2,73.9,392.3-31.8c-53.6,164.1-83.7,343.5-87.1,539.9c-0.1,7.9-0.1,15.6,0,23.4c-1.7,2-2.9,3.9-4.7,5.8
	C1671,2366.9,1569.9,2292.7,1341.8,2206.8z M3006.6,3048.9c-34.5,49.3-78.1,89.8-130.2,120.6c-144.8,85.3-286.2,48.2-367.8-98.4
	c-73.2-131.5-77.3-275.6-73.4-438.3c-7.5-156.8,27.5-325.9,63.9-494.6c24.3-112.3,186.2-231.4,335.8-251.7
	c196.7-26.9,342.8,69.9,372.9,268.3C3256.6,2476.6,3195.8,2778.5,3006.6,3048.9z"/>
</svg>
