<?xml version="1.0" encoding="utf-8"?>
<!-- Generator: Adobe Illustrator 21.1.0, SVG Export Plug-In . SVG Version: 6.00 Build 0)  -->
<!DOCTYPE svg PUBLIC "-//W3C//DTD SVG 1.1//EN" "http://www.w3.org/Graphics/SVG/1.1/DTD/svg11.dtd">
<svg version="1.1" id="Layer_1" xmlns="http://www.w3.org/2000/svg" xmlns:xlink="http://www.w3.org/1999/xlink" x="0px" y="0px"
	 viewBox="0 0 300 300" style="enable-background:new 0 0 300 300;" xml:space="preserve">
<style type="text/css">
	.st0{fill:#FFFFFF;}
</style>
<g>
	<path class="st0" d="M27.8,95h52.4v168.5H27.8V95z M54,11.3c16.7,0,30.3,13.6,30.3,30.3S70.8,72,54,72c-16.8,0-30.3-13.6-30.3-30.3
		S37.2,11.3,54,11.3"/>
	<path class="st0" d="M113.1,95h50.2v23.1h0.7c7-13.2,24.1-27.2,49.6-27.2c53,0,62.8,34.9,62.8,80.3v92.4H224v-81.9
		c0-19.5-0.4-44.7-27.2-44.7c-27.3,0-31.4,21.3-31.4,43.2v83.3h-52.3C113.1,263.6,113.1,95,113.1,95z"/>
</g>
</svg>
